# xmcd CD database file
#
# Track frame offsets:
#	150
#	16741
#	35932
#
# Disc length: 731 seconds
#
# Revision: 0
# Processed by: cddbd v1.5.2PL0 Copyright (c) Steve Scherf et al.
# Submitted via: CDex 1.70beta2
#
DISCID=1d02d903
DTITLE=Michael Bublé - Lost
DYEAR=1900
DGENRE=Blues
TTITLE0=Lost
TTITLE1=That's Life
TTITLE2=Wonderful Tonight (Duet with Ivan Lins)
EXTD=
EXTT0=
EXTT1=
EXTT2=
PLAYORDER=
